<svg xmlns="http://www.w3.org/2000/svg" version="1.1" xmlns:xlink="http://www.w3.org/1999/xlink" xmlns:svgjs="http://svgjs.com/svgjs" width="512" height="512" x="0" y="0" viewBox="0 0 512 512" style="enable-background:new 0 0 512 512" xml:space="preserve"><g><path fill-rule="evenodd" d="M256 89.632c48.712 0 88.201 39.489 88.201 88.2 0 48.712-39.489 88.2-88.201 88.2s-88.199-39.488-88.199-88.2c0-48.71 39.487-88.2 88.199-88.2zm8 250.154v165.519l163.27-63.483V338.314l-127.664 49.64c-3.713 1.436-7.844-.098-9.775-3.441zm-16 165.518V339.786l-25.824 44.73a7.982 7.982 0 0 1-10.114 3.307l-127.33-49.509v103.507zm183.775-255.128L267.56 314.028l32.663 56.574 164.216-63.852zM244.44 314.028 80.224 250.176 47.561 306.75l164.217 63.852zM256 282.032c-43.803 0-81.293-27.028-96.703-65.317l-60.563 23.548L256 301.413l157.266-61.15-60.563-23.548c-15.409 38.288-52.899 65.317-96.703 65.317zm161.031-110.094c4.42 0 8 3.582 8 8s-3.58 8-8 8h-37.467a8 8 0 0 1 0-16zM248 14.696a8 8 0 0 1 16 0v37.469a8 8 0 0 1-16 0zm-80.757 24.771a7.966 7.966 0 0 1 13.813-7.937l18.734 32.449a7.966 7.966 0 0 1-13.813 7.937zm-57.576 61.88a7.981 7.981 0 0 1 8-13.812l32.448 18.734a7.982 7.982 0 0 1-8 13.812zm-18.909 82.38a8 8 0 0 1 0-16h37.468c4.419 0 8 3.582 8 8s-3.581 8-8 8zM330.38 33.635a7.968 7.968 0 0 1 10.876-2.938 7.967 7.967 0 0 1 2.938 10.875L325.46 74.021a7.965 7.965 0 1 1-13.813-7.937zm61.849 57.546a7.981 7.981 0 0 1 8 13.812l-32.449 18.734c-3.813 2.209-8.697.907-10.906-2.906s-.906-8.697 2.906-10.906zM289.396 137.61l-52.247 52.248-17.83-22.438c-4.386-5.518-12.414-6.434-17.931-2.049-5.518 4.387-6.435 12.414-2.048 17.932l26.238 33.019c4.537 6.499 13.88 7.388 19.534 1.733l62.364-62.363c4.991-4.993 4.991-13.088 0-18.082-4.992-4.992-13.087-4.992-18.08 0z" clip-rule="evenodd" fill="#ffffff" opacity="1" data-original="#000000"></path></g></svg>